<svg width="100" height="150" viewBox="0 0 100 150" fill="none" xmlns="http://www.w3.org/2000/svg">
<g clip-path="url(#clip0_39_6647)">
<rect width="100" height="150" fill="white"/>
<mask id="mask0_39_6647" style="mask-type:luminance" maskUnits="userSpaceOnUse" x="0" y="0" width="100" height="150">
<path d="M100 150L100 0L-6.10352e-05 0L-6.10352e-05 150H100Z" fill="white"/>
</mask>
<g mask="url(#mask0_39_6647)">
<mask id="mask1_39_6647" style="mask-type:luminance" maskUnits="userSpaceOnUse" x="-1" y="0" width="102" height="150">
<path d="M100.201 150L100.201 0L-0.202522 0L-0.202522 150H100.201Z" fill="white"/>
</mask>
<g mask="url(#mask1_39_6647)">
<path d="M102.602 152.25L102.602 -2.25L-2.60188 -2.25L-2.60188 152.25H102.602Z" fill="url(#paint0_linear_39_6647)"/>
</g>
</g>
<mask id="mask2_39_6647" style="mask-type:luminance" maskUnits="userSpaceOnUse" x="0" y="0" width="100" height="150">
<path d="M100 150L100 0L-6.10352e-05 0L-6.10352e-05 150H100Z" fill="white"/>
</mask>
<g mask="url(#mask2_39_6647)">
<path d="M79.3884 -45.6435C74.1393 -47.105 68.6193 -47.7074 63.1527 -47.4154C58.2258 -47.1524 52.9048 -45.9144 49.9365 -42.2188C47.8935 -39.6753 47.2982 -36.2869 47.7788 -33.1347C48.2595 -29.9824 49.7279 -27.0315 51.4797 -24.3035C55.737 -17.676 61.6882 -12.1584 66.4499 -5.83966C71.2115 0.479049 74.8555 8.16228 73.472 15.7896C72.5006 21.147 69.1652 25.8593 67.491 31.0623C63.9583 42.0427 68.8566 54.9252 79.0016 61.3345C81.3121 62.7945 83.8712 63.9455 86.5944 64.4989C94.4261 66.0901 102.715 62.4176 107.925 56.7092C113.135 51.0008 115.696 43.5674 117.129 36.1756C121.108 15.6479 117.054 -6.1638 105.904 -24.2203" fill="url(#paint1_linear_39_6647)"/>
</g>
<mask id="mask3_39_6647" style="mask-type:luminance" maskUnits="userSpaceOnUse" x="0" y="0" width="100" height="150">
<path d="M100 150L100 0L-6.10352e-05 0L-6.10352e-05 150H100Z" fill="white"/>
</mask>
<g mask="url(#mask3_39_6647)">
<path d="M115.562 152.256C112.551 135.386 101.314 119.965 85.6482 111.2C70.4666 102.705 51.0378 99.8191 39.8881 86.9556C27.6546 72.8408 30.1551 52.477 26.0327 34.7056C23.9852 25.8814 20.1557 17.4234 14.8066 9.91302C10.1995 3.44462 3.66366 -2.71387 -4.60034 -3.40113C-10.6769 -3.90657 -16.6995 -1.25818 -21.143 2.66039C-25.5858 6.57895 -28.6492 11.667 -31.247 16.842C-48.964 52.1339 -46.8373 95.569 -25.7466 129.191C-4.656 162.813 34.8004 185.667 76.3104 188.306C84.8859 188.851 97.8587 189.824 105.499 185.272C110.93 182.036 114.336 172.967 115.489 167.467C116.537 162.471 116.457 157.267 115.562 152.256Z" fill="url(#paint2_linear_39_6647)"/>
</g>
<mask id="mask4_39_6647" style="mask-type:luminance" maskUnits="userSpaceOnUse" x="0" y="0" width="100" height="150">
<path d="M100 150L100 0L-6.10352e-05 0L-6.10352e-05 150H100Z" fill="white"/>
</mask>
<g mask="url(#mask4_39_6647)">
<path d="M-11.8243 -8.98779C-12.789 -1.0363 -8.07456 6.4261 -3.75085 13.3261C2.8581 23.8733 8.98189 34.7531 13.2646 46.3079C17.5467 57.8628 19.9533 70.155 18.9768 82.3534C18.3017 90.7861 15.515 99.8054 8.16449 104.707C6.87935 105.564 5.46098 106.281 3.92343 106.608C-1.4999 107.763 -6.6382 103.954 -10.3081 100.037C-21.7636 87.8088 -28.2612 72.2938 -34.5413 57.1218" fill="url(#paint3_linear_39_6647)"/>
</g>
<mask id="mask5_39_6647" style="mask-type:luminance" maskUnits="userSpaceOnUse" x="0" y="0" width="100" height="150">
<path d="M100 150L100 0L-6.10352e-05 0L-6.10352e-05 150H100Z" fill="white"/>
</mask>
<g mask="url(#mask5_39_6647)">
<path d="M129.179 188.302C130.947 175.901 129.56 162.831 123.294 151.784C117.028 140.736 105.459 132.007 92.2195 130.425C74.15 128.266 55.9107 139.103 38.2336 134.981C26.8995 132.338 18.1976 124.049 8.00758 118.698C4.01949 116.603 -0.358747 114.924 -4.92925 114.851C-11.3156 114.749 -17.4534 117.889 -21.649 122.404C-25.845 126.918 -28.2652 132.682 -29.579 138.542C-33.1764 154.591 -28.548 172.086 -17.3657 184.698C-7.68561 195.617 6.33004 202.656 20.9939 206.204C35.6583 209.752 51.0136 210.024 66.1294 209.14C84.159 208.085 102.516 205.277 118.281 197.008" fill="url(#paint4_linear_39_6647)"/>
</g>
<mask id="mask6_39_6647" style="mask-type:luminance" maskUnits="userSpaceOnUse" x="0" y="0" width="100" height="150">
<path d="M100 150L100 0L-6.10352e-05 0L-6.10352e-05 150H100Z" fill="white"/>
</mask>
<g mask="url(#mask6_39_6647)">
<path d="M49.6385 64.0866C46.1794 64.0866 43.3753 61.4577 43.3753 58.2143C43.3753 54.9714 46.1794 52.3425 49.6385 52.3425C53.0976 52.3425 55.9017 54.9714 55.9017 58.2143C55.9017 61.4572 53.0976 64.0866 49.6385 64.0866Z" fill="white"/>
<path d="M56.388 63.0574L48.5327 55.6936C48.1712 55.3547 48.1712 54.805 48.5327 54.4661C48.8941 54.1272 49.4799 54.1272 49.842 54.4661L57.6973 61.8304C58.0588 62.1693 58.0588 62.719 57.6973 63.0574C57.3358 63.3968 56.7494 63.3968 56.388 63.0574Z" fill="white"/>
<path d="M48.174 61.8725L42.2711 56.3386C41.9096 55.9997 41.9096 55.45 42.2711 55.1111C42.6326 54.7722 43.2189 54.7722 43.5804 55.1111L49.4833 60.6445C49.8448 60.9839 49.8448 61.5336 49.4833 61.872C49.1218 62.2119 48.5355 62.2119 48.174 61.8725Z" fill="white"/>
<path d="M50.1708 59.8455L42.3155 52.4816C41.954 52.1428 41.954 51.5931 42.3155 51.2542C42.677 50.9153 43.2633 50.9153 43.6248 51.2542L51.4801 58.6185C51.8416 58.9574 51.8416 59.5071 51.4801 59.8455C51.1186 60.1844 50.5328 60.1844 50.1708 59.8455Z" fill="white"/>
</g>
<mask id="mask7_39_6647" style="mask-type:luminance" maskUnits="userSpaceOnUse" x="0" y="0" width="100" height="150">
<path d="M100 150L100 0L-6.10352e-05 0L-6.10352e-05 150H100Z" fill="white"/>
</mask>
<g mask="url(#mask7_39_6647)">
<path d="M117.769 171.648L86.5207 142.353C85.0826 141.004 85.0826 138.818 86.5207 137.47C87.9587 136.121 90.2907 136.121 91.7287 137.47L122.977 166.765C124.415 168.113 124.415 170.299 122.977 171.648C121.539 172.996 119.207 172.996 117.769 171.648Z" fill="white"/>
</g>
<mask id="mask8_39_6647" style="mask-type:luminance" maskUnits="userSpaceOnUse" x="0" y="0" width="100" height="150">
<path d="M100 150L100 0L-6.10352e-05 0L-6.10352e-05 150H100Z" fill="white"/>
</mask>
<g mask="url(#mask8_39_6647)">
<path d="M2.90418 85.1285L-28.3439 55.8338C-29.7825 54.4857 -29.7825 52.2995 -28.3439 50.9513C-26.9053 49.6031 -24.5739 49.6031 -23.1359 50.9513L8.11275 80.2465C9.5508 81.5952 9.5508 83.7808 8.11275 85.129C6.67414 86.4766 4.34223 86.4766 2.90418 85.1285Z" fill="white"/>
</g>
<mask id="mask9_39_6647" style="mask-type:luminance" maskUnits="userSpaceOnUse" x="0" y="0" width="100" height="150">
<path d="M100 150L100 0L-6.10352e-05 0L-6.10352e-05 150H100Z" fill="white"/>
</mask>
<g mask="url(#mask9_39_6647)">
<path d="M21.1266 83.1994L-10.1221 53.9043C-11.5601 52.5561 -11.5601 50.37 -10.1221 49.0218C-8.68345 47.6731 -6.35209 47.6731 -4.91404 49.0218L26.334 78.3169C27.7726 79.6656 27.7726 81.8513 26.334 83.1994C24.896 84.5476 22.5646 84.5476 21.1266 83.1994Z" fill="white"/>
</g>
<mask id="mask10_39_6647" style="mask-type:luminance" maskUnits="userSpaceOnUse" x="0" y="0" width="100" height="150">
<path d="M100 150L100 0L-6.10352e-05 0L-6.10352e-05 150H100Z" fill="white"/>
</mask>
<g mask="url(#mask10_39_6647)">
<path d="M89.1613 159.991L57.9133 130.696C56.4752 129.347 56.4752 127.162 57.9133 125.814C59.3513 124.465 61.6832 124.465 63.1213 125.814L94.3693 155.109C95.8074 156.457 95.8074 158.643 94.3693 159.991C92.9313 161.339 90.5994 161.339 89.1613 159.991Z" fill="white"/>
</g>
<mask id="mask11_39_6647" style="mask-type:luminance" maskUnits="userSpaceOnUse" x="0" y="0" width="100" height="150">
<path d="M100 150L100 0L-6.10352e-05 0L-6.10352e-05 150H100Z" fill="white"/>
</mask>
<g mask="url(#mask11_39_6647)">
<path d="M114.303 43.596L83.0543 14.3009C81.6162 12.9522 81.6162 10.7665 83.0543 9.41836C84.4929 8.07018 86.8242 8.07018 88.2623 9.41836L119.51 38.7135C120.948 40.0617 120.948 42.2478 119.51 43.596C118.072 44.9442 115.741 44.9442 114.303 43.596Z" fill="white"/>
</g>
<path d="M36.2227 67.7273L38.3818 73.8494H38.467L40.6261 67.7273H41.5494L38.879 75H37.9699L35.2994 67.7273H36.2227ZM44.3477 75.1136C43.8222 75.1136 43.3688 74.9976 42.9876 74.7656C42.6089 74.5312 42.3165 74.2045 42.1105 73.7855C41.9069 73.3641 41.8051 72.8741 41.8051 72.3153C41.8051 71.7566 41.9069 71.2642 42.1105 70.8381C42.3165 70.4096 42.6029 70.0758 42.9699 69.8366C43.3392 69.5952 43.7701 69.4744 44.2625 69.4744C44.5466 69.4744 44.8271 69.5218 45.1041 69.6165C45.3811 69.7112 45.6332 69.8651 45.8605 70.0781C46.0878 70.2888 46.2689 70.5682 46.4038 70.9162C46.5388 71.2642 46.6062 71.6927 46.6062 72.2017V72.5568H42.4017V71.8324H45.754C45.754 71.5246 45.6924 71.25 45.5693 71.0085C45.4486 70.767 45.2758 70.5765 45.0508 70.4368C44.8283 70.2971 44.5655 70.2273 44.2625 70.2273C43.9287 70.2273 43.6399 70.3101 43.396 70.4759C43.1545 70.6392 42.9687 70.8523 42.8385 71.1151C42.7083 71.3778 42.6432 71.6596 42.6432 71.9602V72.4432C42.6432 72.8551 42.7142 73.2043 42.8562 73.4908C43.0007 73.7749 43.2007 73.9915 43.4564 74.1406C43.7121 74.2874 44.0092 74.3608 44.3477 74.3608C44.5679 74.3608 44.7668 74.33 44.9443 74.2685C45.1242 74.2045 45.2793 74.1098 45.4095 73.9844C45.5397 73.8565 45.6403 73.6979 45.7114 73.5085L46.521 73.7358C46.4358 74.0104 46.2926 74.2519 46.0913 74.4602C45.8901 74.6662 45.6415 74.8272 45.3456 74.9432C45.0497 75.0568 44.717 75.1136 44.3477 75.1136ZM48.7192 71.7188V75H47.8811V69.5455H48.6908V70.3977H48.7618C48.8896 70.1207 49.0838 69.8982 49.3442 69.7301C49.6046 69.5597 49.9408 69.4744 50.3527 69.4744C50.722 69.4744 51.0452 69.5502 51.3222 69.7017C51.5991 69.8509 51.8146 70.0781 51.9685 70.3835C52.1223 70.6866 52.1993 71.0701 52.1993 71.5341V75H51.3612V71.5909C51.3612 71.1624 51.2499 70.8286 51.0274 70.5895C50.8049 70.348 50.4995 70.2273 50.1112 70.2273C49.8437 70.2273 49.6046 70.2853 49.3939 70.4013C49.1856 70.5173 49.021 70.6866 48.9003 70.9091C48.7795 71.1316 48.7192 71.4015 48.7192 71.7188ZM57.1682 72.7699V69.5455H58.0063V75H57.1682V74.0767H57.1114C56.9836 74.3537 56.7847 74.5893 56.5148 74.7834C56.2449 74.9751 55.904 75.071 55.4921 75.071C55.1512 75.071 54.8481 74.9964 54.583 74.8473C54.3178 74.6958 54.1095 74.4685 53.958 74.1655C53.8065 73.8601 53.7307 73.4754 53.7307 73.0114V69.5455H54.5688V72.9545C54.5688 73.3523 54.6801 73.6695 54.9026 73.9062C55.1275 74.143 55.414 74.2614 55.762 74.2614C55.9703 74.2614 56.1822 74.2081 56.3976 74.1016C56.6154 73.995 56.7977 73.8317 56.9445 73.6115C57.0936 73.3913 57.1682 73.1108 57.1682 72.7699ZM63.4049 70.767L62.6521 70.9801C62.6047 70.8546 62.5349 70.7327 62.4425 70.6143C62.3526 70.4936 62.2295 70.3942 62.0732 70.3161C61.917 70.2379 61.7169 70.1989 61.4731 70.1989C61.1393 70.1989 60.8611 70.2758 60.6386 70.4297C60.4184 70.5812 60.3083 70.7741 60.3083 71.0085C60.3083 71.2169 60.3841 71.3814 60.5356 71.5021C60.6871 71.6229 60.9238 71.7235 61.2458 71.804L62.0555 72.0028C62.5432 72.1212 62.9066 72.3023 63.1457 72.5462C63.3848 72.7876 63.5043 73.099 63.5043 73.4801C63.5043 73.7926 63.4144 74.072 63.2344 74.3182C63.0569 74.5644 62.8083 74.7585 62.4887 74.9006C62.1691 75.0426 61.7974 75.1136 61.3736 75.1136C60.8173 75.1136 60.3568 74.9929 59.9923 74.7514C59.6277 74.5099 59.3968 74.1572 59.2998 73.6932L60.0952 73.4943C60.171 73.7879 60.3142 74.008 60.5249 74.1548C60.738 74.3016 61.0162 74.375 61.3594 74.375C61.7501 74.375 62.0602 74.2921 62.2898 74.1264C62.5218 73.9583 62.6379 73.7571 62.6379 73.5227C62.6379 73.3333 62.5716 73.1747 62.439 73.0469C62.3064 72.9167 62.1028 72.8196 61.8282 72.7557L60.9191 72.5426C60.4196 72.4242 60.0526 72.2408 59.8182 71.9922C59.5862 71.7412 59.4702 71.4276 59.4702 71.0511C59.4702 70.7434 59.5566 70.4711 59.7295 70.2344C59.9047 69.9976 60.1426 69.8118 60.4432 69.6768C60.7463 69.5419 61.0896 69.4744 61.4731 69.4744C62.0129 69.4744 62.4366 69.5928 62.7444 69.8295C63.0545 70.0663 63.2747 70.3788 63.4049 70.767Z" fill="white"/>
<path d="M36.6451 80V77.8182H36.9093V78.7898H38.0726V77.8182H38.3368V80H38.0726V79.0241H36.9093V80H36.6451ZM39.3132 80.0384C39.2095 80.0384 39.1154 80.0188 39.0309 79.9798C38.9464 79.94 38.8793 79.8828 38.8295 79.8082C38.7798 79.733 38.755 79.642 38.755 79.5355C38.755 79.4418 38.7734 79.3658 38.8104 79.3075C38.8473 79.2486 38.8967 79.2024 38.9585 79.169C39.0202 79.1357 39.0884 79.1108 39.163 79.0945C39.2383 79.0774 39.3139 79.0639 39.3899 79.054C39.4893 79.0412 39.57 79.0316 39.6317 79.0252C39.6942 79.0181 39.7397 79.0064 39.7681 78.9901C39.7972 78.9737 39.8118 78.9453 39.8118 78.9048V78.8963C39.8118 78.7912 39.783 78.7095 39.7255 78.6513C39.6687 78.593 39.5824 78.5639 39.4666 78.5639C39.3466 78.5639 39.2525 78.5902 39.1843 78.6428C39.1161 78.6953 39.0682 78.7514 39.0405 78.8111L38.8018 78.7259C38.8445 78.6264 38.9013 78.549 38.9723 78.4936C39.044 78.4375 39.1222 78.3984 39.2067 78.3764C39.2919 78.3537 39.3757 78.3423 39.4581 78.3423C39.5107 78.3423 39.571 78.3487 39.6392 78.3615C39.7081 78.3736 39.7745 78.3988 39.8384 78.4371C39.9031 78.4755 39.9567 78.5334 39.9993 78.6108C40.0419 78.6882 40.0632 78.7919 40.0632 78.9219V80H39.8118V79.7784H39.799C39.782 79.8139 39.7536 79.8519 39.7138 79.8924C39.674 79.9329 39.6211 79.9673 39.555 79.9957C39.489 80.0241 39.4084 80.0384 39.3132 80.0384ZM39.3516 79.8125C39.451 79.8125 39.5348 79.793 39.603 79.7539C39.6719 79.7148 39.7237 79.6644 39.7585 79.6026C39.794 79.5408 39.8118 79.4759 39.8118 79.4077V79.1776C39.8011 79.1903 39.7777 79.2021 39.7415 79.2127C39.706 79.2227 39.6648 79.2315 39.6179 79.2393C39.5717 79.2464 39.5266 79.2528 39.4826 79.2585C39.4393 79.2635 39.4041 79.2678 39.3771 79.2713C39.3118 79.2798 39.2507 79.2937 39.1939 79.3129C39.1378 79.3313 39.0923 79.3594 39.0575 79.397C39.0234 79.4339 39.0064 79.4844 39.0064 79.5483C39.0064 79.6357 39.0387 79.7017 39.1033 79.7464C39.1687 79.7905 39.2514 79.8125 39.3516 79.8125ZM40.5221 80V78.3636H40.765V78.6108H40.782C40.8119 78.5298 40.8659 78.4641 40.944 78.4137C41.0221 78.3633 41.1102 78.3381 41.2082 78.3381C41.2267 78.3381 41.2497 78.3384 41.2774 78.3391C41.3051 78.3398 41.3261 78.3409 41.3403 78.3423V78.598C41.3318 78.5959 41.3122 78.5927 41.2817 78.5884C41.2519 78.5835 41.2203 78.581 41.1869 78.581C41.1073 78.581 41.0363 78.5977 40.9738 78.631C40.912 78.6637 40.863 78.7092 40.8268 78.7674C40.7913 78.8249 40.7735 78.8906 40.7735 78.9645V80H40.5221ZM41.6383 80V78.3636H41.8812V78.6193H41.9025C41.9366 78.532 41.9917 78.4641 42.0676 78.4158C42.1436 78.3668 42.2349 78.3423 42.3414 78.3423C42.4494 78.3423 42.5392 78.3668 42.611 78.4158C42.6834 78.4641 42.7399 78.532 42.7804 78.6193H42.7974C42.8393 78.5348 42.9022 78.4677 42.986 78.418C43.0698 78.3675 43.1703 78.3423 43.2875 78.3423C43.4338 78.3423 43.5534 78.3881 43.6465 78.4798C43.7395 78.5707 43.786 78.7124 43.786 78.9048V80H43.5346V78.9048C43.5346 78.7841 43.5016 78.6978 43.4355 78.646C43.3695 78.5941 43.2917 78.5682 43.2022 78.5682C43.0872 78.5682 42.998 78.603 42.9348 78.6726C42.8716 78.7415 42.84 78.8288 42.84 78.9347V80H42.5843V78.8793C42.5843 78.7862 42.5542 78.7113 42.4938 78.6545C42.4334 78.5969 42.3556 78.5682 42.2605 78.5682C42.1951 78.5682 42.1341 78.5856 42.0772 78.6204C42.0211 78.6552 41.9757 78.7035 41.9409 78.7653C41.9068 78.8263 41.8897 78.897 41.8897 78.9773V80H41.6383ZM44.9105 80.0341C44.7628 80.0341 44.6332 79.9989 44.5217 79.9286C44.4109 79.8583 44.3242 79.7599 44.2617 79.6335C44.1999 79.5071 44.169 79.3594 44.169 79.1903C44.169 79.0199 44.1999 78.8711 44.2617 78.744C44.3242 78.6168 44.4109 78.5181 44.5217 78.4478C44.6332 78.3775 44.7628 78.3423 44.9105 78.3423C45.0582 78.3423 45.1875 78.3775 45.2983 78.4478C45.4098 78.5181 45.4964 78.6168 45.5582 78.744C45.6207 78.8711 45.652 79.0199 45.652 79.1903C45.652 79.3594 45.6207 79.5071 45.5582 79.6335C45.4964 79.7599 45.4098 79.8583 45.2983 79.9286C45.1875 79.9989 45.0582 80.0341 44.9105 80.0341ZM44.9105 79.8082C45.0227 79.8082 45.1151 79.7795 45.1875 79.7219C45.2599 79.6644 45.3136 79.5888 45.3484 79.495C45.3832 79.4013 45.4006 79.2997 45.4006 79.1903C45.4006 79.081 45.3832 78.979 45.3484 78.8846C45.3136 78.7901 45.2599 78.7138 45.1875 78.6555C45.1151 78.5973 45.0227 78.5682 44.9105 78.5682C44.7983 78.5682 44.706 78.5973 44.6335 78.6555C44.5611 78.7138 44.5075 78.7901 44.4727 78.8846C44.4379 78.979 44.4205 79.081 44.4205 79.1903C44.4205 79.2997 44.4379 79.4013 44.4727 79.495C44.5075 79.5888 44.5611 79.6644 44.6335 79.7219C44.706 79.7795 44.7983 79.8082 44.9105 79.8082ZM46.2872 79.0156V80H46.0358V78.3636H46.2787V78.6193H46.3C46.3383 78.5362 46.3966 78.4695 46.4747 78.419C46.5528 78.3679 46.6537 78.3423 46.7773 78.3423C46.8881 78.3423 46.985 78.3651 47.0681 78.4105C47.1512 78.4553 47.2158 78.5234 47.262 78.6151C47.3081 78.706 47.3312 78.821 47.3312 78.9602V80H47.0798V78.9773C47.0798 78.8487 47.0464 78.7486 46.9797 78.6768C46.9129 78.6044 46.8213 78.5682 46.7048 78.5682C46.6246 78.5682 46.5528 78.5856 46.4896 78.6204C46.4271 78.6552 46.3778 78.706 46.3415 78.7727C46.3053 78.8395 46.2872 78.9205 46.2872 79.0156ZM47.894 80.6136C47.8514 80.6136 47.8134 80.6101 47.78 80.603C47.7466 80.5966 47.7235 80.5902 47.7108 80.5838L47.7747 80.3622C47.8358 80.3778 47.8897 80.3835 47.9366 80.3793C47.9835 80.375 48.025 80.354 48.0613 80.3164C48.0982 80.2795 48.1319 80.2195 48.1625 80.1364L48.2093 80.0085L47.6042 78.3636H47.877L48.3287 79.6676H48.3457L48.7974 78.3636H49.0701L48.3755 80.2386C48.3443 80.3232 48.3056 80.3931 48.2594 80.4485C48.2132 80.5046 48.1596 80.5462 48.0985 80.5732C48.0382 80.6001 47.97 80.6136 47.894 80.6136ZM49.729 77.8182V78.0099C49.729 78.0682 49.7184 78.1303 49.6971 78.1964C49.6765 78.2617 49.646 78.3253 49.6055 78.3871C49.5657 78.4482 49.5174 78.5014 49.4606 78.5469L49.3242 78.4361C49.369 78.3722 49.4077 78.3058 49.4403 78.2369C49.4737 78.1673 49.4904 78.093 49.4904 78.0142V77.8182H49.729ZM50.9888 78.7301L50.763 78.794C50.7488 78.7564 50.7278 78.7198 50.7001 78.6843C50.6731 78.6481 50.6362 78.6183 50.5893 78.5948C50.5424 78.5714 50.4824 78.5597 50.4093 78.5597C50.3091 78.5597 50.2257 78.5827 50.1589 78.6289C50.0929 78.6744 50.0598 78.7322 50.0598 78.8026C50.0598 78.8651 50.0826 78.9144 50.128 78.9506C50.1735 78.9869 50.2445 79.017 50.3411 79.0412L50.584 79.1009C50.7303 79.1364 50.8393 79.1907 50.911 79.2638C50.9828 79.3363 51.0186 79.4297 51.0186 79.544C51.0186 79.6378 50.9917 79.7216 50.9377 79.7955C50.8844 79.8693 50.8098 79.9276 50.714 79.9702C50.6181 80.0128 50.5066 80.0341 50.3794 80.0341C50.2125 80.0341 50.0744 79.9979 49.965 79.9254C49.8556 79.853 49.7864 79.7472 49.7573 79.608L49.9959 79.5483C50.0186 79.6364 50.0616 79.7024 50.1248 79.7464C50.1887 79.7905 50.2722 79.8125 50.3752 79.8125C50.4924 79.8125 50.5854 79.7876 50.6543 79.7379C50.7239 79.6875 50.7587 79.6271 50.7587 79.5568C50.7587 79.5 50.7388 79.4524 50.699 79.4141C50.6593 79.375 50.5982 79.3459 50.5158 79.3267L50.2431 79.2628C50.0932 79.2273 49.9831 79.1722 49.9128 79.0977C49.8432 79.0224 49.8084 78.9283 49.8084 78.8153C49.8084 78.723 49.8343 78.6413 49.8862 78.5703C49.9387 78.4993 50.0101 78.4435 50.1003 78.4031C50.1912 78.3626 50.2942 78.3423 50.4093 78.3423C50.5712 78.3423 50.6983 78.3778 50.7907 78.4489C50.8837 78.5199 50.9498 78.6136 50.9888 78.7301ZM52.2749 80V77.8182H53.0377C53.1897 77.8182 53.3151 77.8445 53.4138 77.897C53.5125 77.9489 53.586 78.0188 53.6343 78.1069C53.6826 78.1942 53.7068 78.2912 53.7068 78.3977C53.7068 78.4915 53.6901 78.5689 53.6567 78.63C53.624 78.6911 53.5807 78.7393 53.5267 78.7749C53.4735 78.8104 53.4156 78.8366 53.3531 78.8537V78.875C53.4198 78.8793 53.4869 78.9027 53.5544 78.9453C53.6219 78.9879 53.6784 79.049 53.7238 79.1286C53.7693 79.2081 53.792 79.3054 53.792 79.4205C53.792 79.5298 53.7671 79.6282 53.7174 79.7156C53.6677 79.8029 53.5892 79.8722 53.482 79.9233C53.3747 79.9744 53.2352 80 53.0633 80H52.2749ZM52.5392 79.7656H53.0633C53.2359 79.7656 53.3584 79.7322 53.4308 79.6655C53.504 79.598 53.5406 79.5163 53.5406 79.4205C53.5406 79.3466 53.5218 79.2784 53.4841 79.2159C53.4465 79.1527 53.3928 79.1023 53.3232 79.0646C53.2536 79.0263 53.1713 79.0071 53.0761 79.0071H52.5392V79.7656ZM52.5392 78.777H53.0292C53.1088 78.777 53.1805 78.7614 53.2444 78.7301C53.309 78.6989 53.3602 78.6548 53.3978 78.598C53.4362 78.5412 53.4553 78.4744 53.4553 78.3977C53.4553 78.3018 53.422 78.2205 53.3552 78.1538C53.2884 78.0863 53.1826 78.0526 53.0377 78.0526H52.5392V78.777ZM54.8781 80.0341C54.7204 80.0341 54.5844 79.9993 54.4701 79.9297C54.3564 79.8594 54.2687 79.7614 54.2069 79.6357C54.1459 79.5092 54.1153 79.3622 54.1153 79.1946C54.1153 79.027 54.1459 78.8793 54.2069 78.7514C54.2687 78.6229 54.3547 78.5227 54.4648 78.451C54.5756 78.3786 54.7048 78.3423 54.8525 78.3423C54.9378 78.3423 55.0219 78.3565 55.105 78.3849C55.1881 78.4134 55.2638 78.4595 55.3319 78.5234C55.4001 78.5866 55.4545 78.6705 55.4949 78.7749C55.5354 78.8793 55.5557 79.0078 55.5557 79.1605V79.267H54.2943V79.0497H55.3C55.3 78.9574 55.2815 78.875 55.2446 78.8026C55.2084 78.7301 55.1565 78.6729 55.089 78.631C55.0223 78.5891 54.9434 78.5682 54.8525 78.5682C54.7524 78.5682 54.6657 78.593 54.5926 78.6428C54.5202 78.6918 54.4644 78.7557 54.4253 78.8345C54.3863 78.9134 54.3667 78.9979 54.3667 79.0881V79.233C54.3667 79.3565 54.3881 79.4613 54.4307 79.5472C54.474 79.6325 54.534 79.6974 54.6107 79.7422C54.6874 79.7862 54.7765 79.8082 54.8781 79.8082C54.9442 79.8082 55.0038 79.799 55.0571 79.7805C55.1111 79.7614 55.1576 79.733 55.1966 79.6953C55.2357 79.657 55.2659 79.6094 55.2872 79.5526L55.5301 79.6207C55.5045 79.7031 55.4616 79.7756 55.4012 79.8381C55.3408 79.8999 55.2662 79.9482 55.1775 79.983C55.0887 80.017 54.9889 80.0341 54.8781 80.0341ZM56.4197 80.0384C56.316 80.0384 56.2219 80.0188 56.1373 79.9798C56.0528 79.94 55.9857 79.8828 55.936 79.8082C55.8863 79.733 55.8614 79.642 55.8614 79.5355C55.8614 79.4418 55.8799 79.3658 55.9168 79.3075C55.9537 79.2486 56.0031 79.2024 56.0649 79.169C56.1267 79.1357 56.1949 79.1108 56.2694 79.0945C56.3447 79.0774 56.4204 79.0639 56.4964 79.054C56.5958 79.0412 56.6764 79.0316 56.7382 79.0252C56.8007 79.0181 56.8461 79.0064 56.8746 78.9901C56.9037 78.9737 56.9182 78.9453 56.9182 78.9048V78.8963C56.9182 78.7912 56.8895 78.7095 56.8319 78.6513C56.7751 78.593 56.6888 78.5639 56.5731 78.5639C56.453 78.5639 56.3589 78.5902 56.2907 78.6428C56.2226 78.6953 56.1746 78.7514 56.1469 78.8111L55.9083 78.7259C55.9509 78.6264 56.0077 78.549 56.0787 78.4936C56.1505 78.4375 56.2286 78.3984 56.3131 78.3764C56.3983 78.3537 56.4822 78.3423 56.5645 78.3423C56.6171 78.3423 56.6775 78.3487 56.7456 78.3615C56.8145 78.3736 56.8809 78.3988 56.9449 78.4371C57.0095 78.4755 57.0631 78.5334 57.1057 78.6108C57.1483 78.6882 57.1697 78.7919 57.1697 78.9219V80H56.9182V79.7784H56.9055C56.8884 79.8139 56.86 79.8519 56.8202 79.8924C56.7805 79.9329 56.7275 79.9673 56.6615 79.9957C56.5954 80.0241 56.5148 80.0384 56.4197 80.0384ZM56.458 79.8125C56.5574 79.8125 56.6412 79.793 56.7094 79.7539C56.7783 79.7148 56.8302 79.6644 56.865 79.6026C56.9005 79.5408 56.9182 79.4759 56.9182 79.4077V79.1776C56.9076 79.1903 56.8841 79.2021 56.8479 79.2127C56.8124 79.2227 56.7712 79.2315 56.7243 79.2393C56.6782 79.2464 56.6331 79.2528 56.589 79.2585C56.5457 79.2635 56.5106 79.2678 56.4836 79.2713C56.4182 79.2798 56.3572 79.2937 56.3003 79.3129C56.2442 79.3313 56.1988 79.3594 56.164 79.397C56.1299 79.4339 56.1128 79.4844 56.1128 79.5483C56.1128 79.6357 56.1452 79.7017 56.2098 79.7464C56.2751 79.7905 56.3579 79.8125 56.458 79.8125ZM58.2933 80.0341C58.1399 80.0341 58.0078 79.9979 57.897 79.9254C57.7862 79.853 57.701 79.7532 57.6413 79.6261C57.5817 79.4989 57.5518 79.3537 57.5518 79.1903C57.5518 79.0241 57.5824 78.8775 57.6435 78.7504C57.7053 78.6225 57.7912 78.5227 57.9013 78.451C58.0121 78.3786 58.1413 78.3423 58.2891 78.3423C58.4041 78.3423 58.5078 78.3636 58.6001 78.4062C58.6925 78.4489 58.7681 78.5085 58.8271 78.5852C58.886 78.6619 58.9226 78.7514 58.9368 78.8537H58.6854C58.6662 78.7791 58.6236 78.7131 58.5575 78.6555C58.4922 78.5973 58.4041 78.5682 58.2933 78.5682C58.1953 78.5682 58.1094 78.5937 58.0355 78.6449C57.9624 78.6953 57.9052 78.7667 57.864 78.859C57.8235 78.9506 57.8033 79.0582 57.8033 79.1818C57.8033 79.3082 57.8232 79.4183 57.8629 79.5121C57.9034 79.6058 57.9602 79.6786 58.0334 79.7305C58.1072 79.7823 58.1939 79.8082 58.2933 79.8082C58.3587 79.8082 58.418 79.7969 58.4712 79.7741C58.5245 79.7514 58.5696 79.7188 58.6065 79.6761C58.6435 79.6335 58.6697 79.5824 58.6854 79.5227H58.9368C58.9226 79.6193 58.8874 79.7063 58.8313 79.7837C58.7759 79.8604 58.7024 79.9215 58.6108 79.967C58.5199 80.0117 58.4141 80.0341 58.2933 80.0341ZM59.9691 80.0341C59.8214 80.0341 59.6918 79.9989 59.5803 79.9286C59.4695 79.8583 59.3828 79.7599 59.3203 79.6335C59.2585 79.5071 59.2276 79.3594 59.2276 79.1903C59.2276 79.0199 59.2585 78.8711 59.3203 78.744C59.3828 78.6168 59.4695 78.5181 59.5803 78.4478C59.6918 78.3775 59.8214 78.3423 59.9691 78.3423C60.1168 78.3423 60.2461 78.3775 60.3569 78.4478C60.4684 78.5181 60.555 78.6168 60.6168 78.744C60.6793 78.8711 60.7106 79.0199 60.7106 79.1903C60.7106 79.3594 60.6793 79.5071 60.6168 79.6335C60.555 79.7599 60.4684 79.8583 60.3569 79.9286C60.2461 79.9989 60.1168 80.0341 59.9691 80.0341ZM59.9691 79.8082C60.0813 79.8082 60.1737 79.7795 60.2461 79.7219C60.3185 79.6644 60.3722 79.5888 60.407 79.495C60.4418 79.4013 60.4592 79.2997 60.4592 79.1903C60.4592 79.081 60.4418 78.979 60.407 78.8846C60.3722 78.7901 60.3185 78.7138 60.2461 78.6555C60.1737 78.5973 60.0813 78.5682 59.9691 78.5682C59.8569 78.5682 59.7646 78.5973 59.6921 78.6555C59.6197 78.7138 59.5661 78.7901 59.5312 78.8846C59.4964 78.979 59.479 79.081 59.479 79.1903C59.479 79.2997 59.4964 79.4013 59.5312 79.495C59.5661 79.5888 59.6197 79.6644 59.6921 79.7219C59.7646 79.7795 59.8569 79.8082 59.9691 79.8082ZM61.3458 79.0156V80H61.0944V78.3636H61.3373V78.6193H61.3586C61.3969 78.5362 61.4552 78.4695 61.5333 78.419C61.6114 78.3679 61.7123 78.3423 61.8358 78.3423C61.9466 78.3423 62.0436 78.3651 62.1267 78.4105C62.2098 78.4553 62.2744 78.5234 62.3206 78.6151C62.3667 78.706 62.3898 78.821 62.3898 78.9602V80H62.1384V78.9773C62.1384 78.8487 62.105 78.7486 62.0383 78.6768C61.9715 78.6044 61.8799 78.5682 61.7634 78.5682C61.6831 78.5682 61.6114 78.5856 61.5482 78.6204C61.4857 78.6552 61.4363 78.706 61.4001 78.7727C61.3639 78.8395 61.3458 78.9205 61.3458 79.0156Z" fill="white"/>
</g>
<defs>
<linearGradient id="paint0_linear_39_6647" x1="102.594" y1="36.2193" x2="-4.77714" y2="126.298" gradientUnits="userSpaceOnUse">
<stop stop-color="#DA0067"/>
<stop offset="1" stop-color="#FBC160"/>
</linearGradient>
<linearGradient id="paint1_linear_39_6647" x1="70.3564" y1="-9.56449" x2="112.991" y2="55.403" gradientUnits="userSpaceOnUse">
<stop stop-color="#662482"/>
<stop offset="1" stop-color="#0092D9"/>
</linearGradient>
<linearGradient id="paint2_linear_39_6647" x1="79.5134" y1="88.1794" x2="-38.9288" y2="104.398" gradientUnits="userSpaceOnUse">
<stop stop-color="#DA0059"/>
<stop offset="1" stop-color="#672966"/>
</linearGradient>
<linearGradient id="paint3_linear_39_6647" x1="36.139" y1="69.1253" x2="-31.5257" y2="32.3668" gradientUnits="userSpaceOnUse">
<stop stop-color="#F9E42B"/>
<stop offset="1" stop-color="#EA5C41"/>
</linearGradient>
<linearGradient id="paint4_linear_39_6647" x1="98.0776" y1="154.011" x2="-27.8925" y2="171.261" gradientUnits="userSpaceOnUse">
<stop stop-color="#7B226C"/>
<stop offset="1" stop-color="#0092D9"/>
</linearGradient>
<clipPath id="clip0_39_6647">
<rect width="100" height="150" fill="white"/>
</clipPath>
</defs>
</svg>
