<svg width="100" height="150" viewBox="0 0 100 150" fill="none" xmlns="http://www.w3.org/2000/svg">
<g clip-path="url(#clip0_39_6647)">
<rect width="100" height="150" fill="white"/>
<mask id="mask0_39_6647" style="mask-type:luminance" maskUnits="userSpaceOnUse" x="0" y="0" width="100" height="150">
<path d="M100 150L100 0L-6.10352e-05 0L-6.10352e-05 150H100Z" fill="white"/>
</mask>
<g mask="url(#mask0_39_6647)">
<mask id="mask1_39_6647" style="mask-type:luminance" maskUnits="userSpaceOnUse" x="-1" y="0" width="102" height="150">
<path d="M100.201 150L100.201 0L-0.202522 0L-0.202522 150H100.201Z" fill="white"/>
</mask>
<g mask="url(#mask1_39_6647)">
<path d="M102.602 152.25L102.602 -2.25L-2.60188 -2.25L-2.60188 152.25H102.602Z" fill="url(#paint0_linear_39_6647)"/>
</g>
</g>
<mask id="mask2_39_6647" style="mask-type:luminance" maskUnits="userSpaceOnUse" x="0" y="0" width="100" height="150">
<path d="M100 150L100 0L-6.10352e-05 0L-6.10352e-05 150H100Z" fill="white"/>
</mask>
<g mask="url(#mask2_39_6647)">
<path d="M79.3884 -45.6435C74.1393 -47.105 68.6193 -47.7074 63.1527 -47.4154C58.2258 -47.1524 52.9048 -45.9144 49.9365 -42.2188C47.8935 -39.6753 47.2982 -36.2869 47.7788 -33.1347C48.2595 -29.9824 49.7279 -27.0315 51.4797 -24.3035C55.737 -17.676 61.6882 -12.1584 66.4499 -5.83966C71.2115 0.479049 74.8555 8.16228 73.472 15.7896C72.5006 21.147 69.1652 25.8593 67.491 31.0623C63.9583 42.0427 68.8566 54.9252 79.0016 61.3345C81.3121 62.7945 83.8712 63.9455 86.5944 64.4989C94.4261 66.0901 102.715 62.4176 107.925 56.7092C113.135 51.0008 115.696 43.5674 117.129 36.1756C121.108 15.6479 117.054 -6.1638 105.904 -24.2203" fill="url(#paint1_linear_39_6647)"/>
</g>
<mask id="mask3_39_6647" style="mask-type:luminance" maskUnits="userSpaceOnUse" x="0" y="0" width="100" height="150">
<path d="M100 150L100 0L-6.10352e-05 0L-6.10352e-05 150H100Z" fill="white"/>
</mask>
<g mask="url(#mask3_39_6647)">
<path d="M115.562 152.256C112.551 135.386 101.314 119.965 85.6482 111.2C70.4666 102.705 51.0378 99.8191 39.8881 86.9556C27.6546 72.8408 30.1551 52.477 26.0327 34.7056C23.9852 25.8814 20.1557 17.4234 14.8066 9.91302C10.1995 3.44462 3.66366 -2.71387 -4.60034 -3.40113C-10.6769 -3.90657 -16.6995 -1.25818 -21.143 2.66039C-25.5858 6.57895 -28.6492 11.667 -31.247 16.842C-48.964 52.1339 -46.8373 95.569 -25.7466 129.191C-4.656 162.813 34.8004 185.667 76.3104 188.306C84.8859 188.851 97.8587 189.824 105.499 185.272C110.93 182.036 114.336 172.967 115.489 167.467C116.537 162.471 116.457 157.267 115.562 152.256Z" fill="url(#paint2_linear_39_6647)"/>
</g>
<mask id="mask4_39_6647" style="mask-type:luminance" maskUnits="userSpaceOnUse" x="0" y="0" width="100" height="150">
<path d="M100 150L100 0L-6.10352e-05 0L-6.10352e-05 150H100Z" fill="white"/>
</mask>
<g mask="url(#mask4_39_6647)">
<path d="M-11.8243 -8.98779C-12.789 -1.0363 -8.07456 6.4261 -3.75085 13.3261C2.8581 23.8733 8.98189 34.7531 13.2646 46.3079C17.5467 57.8628 19.9533 70.155 18.9768 82.3534C18.3017 90.7861 15.515 99.8054 8.16449 104.707C6.87935 105.564 5.46098 106.281 3.92343 106.608C-1.4999 107.763 -6.6382 103.954 -10.3081 100.037C-21.7636 87.8088 -28.2612 72.2938 -34.5413 57.1218" fill="url(#paint3_linear_39_6647)"/>
</g>
<mask id="mask5_39_6647" style="mask-type:luminance" maskUnits="userSpaceOnUse" x="0" y="0" width="100" height="150">
<path d="M100 150L100 0L-6.10352e-05 0L-6.10352e-05 150H100Z" fill="white"/>
</mask>
<g mask="url(#mask5_39_6647)">
<path d="M129.179 188.302C130.947 175.901 129.56 162.831 123.294 151.784C117.028 140.736 105.459 132.007 92.2195 130.425C74.15 128.266 55.9107 139.103 38.2336 134.981C26.8995 132.338 18.1976 124.049 8.00758 118.698C4.01949 116.603 -0.358747 114.924 -4.92925 114.851C-11.3156 114.749 -17.4534 117.889 -21.649 122.404C-25.845 126.918 -28.2652 132.682 -29.579 138.542C-33.1764 154.591 -28.548 172.086 -17.3657 184.698C-7.68561 195.617 6.33004 202.656 20.9939 206.204C35.6583 209.752 51.0136 210.024 66.1294 209.14C84.159 208.085 102.516 205.277 118.281 197.008" fill="url(#paint4_linear_39_6647)"/>
</g>
<mask id="mask6_39_6647" style="mask-type:luminance" maskUnits="userSpaceOnUse" x="0" y="0" width="100" height="150">
<path d="M100 150L100 0L-6.10352e-05 0L-6.10352e-05 150H100Z" fill="white"/>
</mask>
<g mask="url(#mask6_39_6647)">
<path d="M117.769 171.648L86.5207 142.353C85.0826 141.004 85.0826 138.818 86.5207 137.47C87.9587 136.121 90.2907 136.121 91.7287 137.47L122.977 166.765C124.415 168.113 124.415 170.299 122.977 171.648C121.539 172.996 119.207 172.996 117.769 171.648Z" fill="white"/>
</g>
<mask id="mask7_39_6647" style="mask-type:luminance" maskUnits="userSpaceOnUse" x="0" y="0" width="100" height="150">
<path d="M100 150L100 0L-6.10352e-05 0L-6.10352e-05 150H100Z" fill="white"/>
</mask>
<g mask="url(#mask7_39_6647)">
<path d="M2.90418 85.1285L-28.3439 55.8338C-29.7825 54.4857 -29.7825 52.2995 -28.3439 50.9513C-26.9053 49.6031 -24.5739 49.6031 -23.1359 50.9513L8.11275 80.2465C9.5508 81.5952 9.5508 83.7808 8.11275 85.129C6.67414 86.4766 4.34223 86.4766 2.90418 85.1285Z" fill="white"/>
</g>
<mask id="mask8_39_6647" style="mask-type:luminance" maskUnits="userSpaceOnUse" x="0" y="0" width="100" height="150">
<path d="M100 150L100 0L-6.10352e-05 0L-6.10352e-05 150H100Z" fill="white"/>
</mask>
<g mask="url(#mask8_39_6647)">
<path d="M21.1266 83.1994L-10.1221 53.9043C-11.5601 52.5561 -11.5601 50.37 -10.1221 49.0218C-8.68345 47.6731 -6.35209 47.6731 -4.91404 49.0218L26.334 78.3169C27.7726 79.6656 27.7726 81.8513 26.334 83.1994C24.896 84.5476 22.5646 84.5476 21.1266 83.1994Z" fill="white"/>
</g>
<mask id="mask9_39_6647" style="mask-type:luminance" maskUnits="userSpaceOnUse" x="0" y="0" width="100" height="150">
<path d="M100 150L100 0L-6.10352e-05 0L-6.10352e-05 150H100Z" fill="white"/>
</mask>
<g mask="url(#mask9_39_6647)">
<path d="M89.1613 159.991L57.9133 130.696C56.4752 129.347 56.4752 127.162 57.9133 125.814C59.3513 124.465 61.6832 124.465 63.1213 125.814L94.3693 155.109C95.8074 156.457 95.8074 158.643 94.3693 159.991C92.9313 161.339 90.5994 161.339 89.1613 159.991Z" fill="white"/>
</g>
<mask id="mask10_39_6647" style="mask-type:luminance" maskUnits="userSpaceOnUse" x="0" y="0" width="100" height="150">
<path d="M100 150L100 0L-6.10352e-05 0L-6.10352e-05 150H100Z" fill="white"/>
</mask>
<g mask="url(#mask10_39_6647)">
<path d="M114.303 43.596L83.0543 14.3009C81.6162 12.9522 81.6162 10.7665 83.0543 9.41836C84.4929 8.07018 86.8242 8.07018 88.2623 9.41836L119.51 38.7135C120.948 40.0617 120.948 42.2478 119.51 43.596C118.072 44.9442 115.741 44.9442 114.303 43.596Z" fill="white"/>
</g>
</g>
<defs>
<linearGradient id="paint0_linear_39_6647" x1="102.594" y1="36.2193" x2="-4.77714" y2="126.298" gradientUnits="userSpaceOnUse">
<stop stop-color="#DA0067"/>
<stop offset="1" stop-color="#FBC160"/>
</linearGradient>
<linearGradient id="paint1_linear_39_6647" x1="70.3564" y1="-9.56449" x2="112.991" y2="55.403" gradientUnits="userSpaceOnUse">
<stop stop-color="#662482"/>
<stop offset="1" stop-color="#0092D9"/>
</linearGradient>
<linearGradient id="paint2_linear_39_6647" x1="79.5134" y1="88.1794" x2="-38.9288" y2="104.398" gradientUnits="userSpaceOnUse">
<stop stop-color="#DA0059"/>
<stop offset="1" stop-color="#672966"/>
</linearGradient>
<linearGradient id="paint3_linear_39_6647" x1="36.139" y1="69.1253" x2="-31.5257" y2="32.3668" gradientUnits="userSpaceOnUse">
<stop stop-color="#F9E42B"/>
<stop offset="1" stop-color="#EA5C41"/>
</linearGradient>
<linearGradient id="paint4_linear_39_6647" x1="98.0776" y1="154.011" x2="-27.8925" y2="171.261" gradientUnits="userSpaceOnUse">
<stop stop-color="#7B226C"/>
<stop offset="1" stop-color="#0092D9"/>
</linearGradient>
<clipPath id="clip0_39_6647">
<rect width="100" height="150" fill="white"/>
</clipPath>
</defs>
</svg>
